<mxfile host="app.diagrams.net" modified="2024-05-17T20:09:43.493Z" agent="Mozilla/5.0 (X11; Linux x86_64) AppleWebKit/537.36 (KHTML, like Gecko) Chrome/124.0.0.0 Safari/537.36 Edg/124.0.0.0" etag="N2EPNUsi4Uxfq11aKosq" version="24.4.3" type="device">
  <diagram name="Page-1" id="NZZNYplkpagSugCyiZgp">
    <mxGraphModel dx="784" dy="487" grid="1" gridSize="10" guides="1" tooltips="1" connect="1" arrows="1" fold="1" page="1" pageScale="1" pageWidth="850" pageHeight="1100" math="0" shadow="0">
      <root>
        <mxCell id="0" />
        <mxCell id="1" parent="0" />
        <mxCell id="SPeGweqxYJMhsSStl5JR-1" value="&lt;font style=&quot;font-size: 15px;&quot;&gt;&lt;b&gt;Record&lt;/b&gt;&lt;/font&gt;" style="swimlane;fontStyle=0;childLayout=stackLayout;horizontal=1;startSize=30;horizontalStack=0;resizeParent=1;resizeParentMax=0;resizeLast=0;collapsible=1;marginBottom=0;whiteSpace=wrap;html=1;fillColor=#f5f5f5;fontColor=#333333;strokeColor=#666666;" vertex="1" parent="1">
          <mxGeometry x="330" y="150" width="190" height="120" as="geometry" />
        </mxCell>
        <mxCell id="SPeGweqxYJMhsSStl5JR-2" value="&lt;font style=&quot;font-size: 14px;&quot;&gt;+ name : std::string&lt;/font&gt;" style="text;strokeColor=none;fillColor=#dae8fc;align=left;verticalAlign=middle;spacingLeft=4;spacingRight=4;overflow=hidden;points=[[0,0.5],[1,0.5]];portConstraint=eastwest;rotatable=0;whiteSpace=wrap;html=1;" vertex="1" parent="SPeGweqxYJMhsSStl5JR-1">
          <mxGeometry y="30" width="190" height="30" as="geometry" />
        </mxCell>
        <mxCell id="SPeGweqxYJMhsSStl5JR-3" value="&lt;font style=&quot;font-size: 14px;&quot;&gt;+ power_level : int&lt;/font&gt;" style="text;strokeColor=none;fillColor=#dae8fc;align=left;verticalAlign=middle;spacingLeft=4;spacingRight=4;overflow=hidden;points=[[0,0.5],[1,0.5]];portConstraint=eastwest;rotatable=0;whiteSpace=wrap;html=1;" vertex="1" parent="SPeGweqxYJMhsSStl5JR-1">
          <mxGeometry y="60" width="190" height="30" as="geometry" />
        </mxCell>
        <mxCell id="SPeGweqxYJMhsSStl5JR-4" value="&lt;font style=&quot;font-size: 14px;&quot;&gt;+ Print_Data() : void&lt;/font&gt;" style="text;strokeColor=none;fillColor=#dae8fc;align=left;verticalAlign=middle;spacingLeft=4;spacingRight=4;overflow=hidden;points=[[0,0.5],[1,0.5]];portConstraint=eastwest;rotatable=0;whiteSpace=wrap;html=1;" vertex="1" parent="SPeGweqxYJMhsSStl5JR-1">
          <mxGeometry y="90" width="190" height="30" as="geometry" />
        </mxCell>
        <mxCell id="SPeGweqxYJMhsSStl5JR-5" value="" style="endArrow=none;html=1;rounded=0;entryX=0.995;entryY=1.033;entryDx=0;entryDy=0;entryPerimeter=0;" edge="1" parent="SPeGweqxYJMhsSStl5JR-1" target="SPeGweqxYJMhsSStl5JR-3">
          <mxGeometry width="50" height="50" relative="1" as="geometry">
            <mxPoint y="90" as="sourcePoint" />
            <mxPoint x="130" y="170" as="targetPoint" />
          </mxGeometry>
        </mxCell>
      </root>
    </mxGraphModel>
  </diagram>
</mxfile>
